# xmcd
#
# Track frame offsets: 
#        150
#        26350
#        53340
#        70217
#        85650
#        103097
#        126590
#        139502
#        147787
#        158422
#        173027
#        184560
#        198680
#        211582
#        231157
#        246707
#        258047
#        269100
#        281312
#        286050
#        295297
#        306587
#        318570
#
# Disc length: 4447 seconds
#
# Revision: 0
# Processed by: cddbd v1.5.2PL0 Copyright (c) Steve Scherf et al.
# Submitted via: ExactAudioCopy v1.0b1
#
DISCID=53115d17
DTITLE=Murray McLachlan - Myaskovsky: Piano sonatas [CD 3 of 3)
DYEAR=1988
DGENRE=Piano
TTITLE0=Prelude and rondo-sonata, piano   Rondo-sonata  Op. 58
TTITLE1=Sonata, piano, no. 08, d minor   Barcarolle-Sonatina: Allegret
TTITLE1=to  Op. 83 
TTITLE2=Sonata, piano, no. 08, d minor   Song-Idyll: Andante cantabile
TTITLE2=Op. 83
TTITLE3=Sonata, piano, no. 08, d minor   Chorale-Rondo: Vivo  Op. 83
TTITLE4=Sonata, piano, no. 09, F Major   Sonatina in the light manner:
TTITLE4=Allegro non troppo  Op. 84
TTITLE5=Sonata, piano, no. 09, F Major   Narrative: Andante sostenuto 
TTITLE5=Op. 84
TTITLE6=Sonata, piano, no. 09, F Major   Unrestrained Aspiration: Vivo
TTITLE6=Op. 84
TTITLE7=Reminiscences, piano   Andante semplice  Op. 29
TTITLE8=Reminiscences, piano   Vivace e fantastico  Op. 29
TTITLE9=Reminiscences, piano   Largo con affilitto  Op. 29
TTITLE10=Reminiscences, piano   Allegretto malinconico  Op. 29
TTITLE11=Reminiscences, piano   Lentamente  Op. 29
TTITLE12=Reminiscences, piano   Poco allegro  Op. 29
TTITLE13=Sonata, piano, no. 07, C Major   Sonata: Allegro moderato  Op
TTITLE13=82
TTITLE14=Sonata, piano, no. 07, C Major   Elegy: Andante pensieroso  O
TTITLE14=p. 82
TTITLE15=Sonata, piano, no. 07, C Major   Dance-Rondo: Allegro giocoso
TTITLE15=Op. 82
TTITLE16=Yellowed Leaves, piano   Andante  Op. 31
TTITLE17=Yellowed Leaves, piano   Un poco sostenuto malinconico e abba
TTITLE17=ndonamente  Op. 31
TTITLE18=Yellowed Leaves, piano   Andante cantabile  Op. 31
TTITLE19=Yellowed Leaves, piano   Molto vivzce e fantastico  Op. 31
TTITLE20=Yellowed Leaves, piano   Molto calmo ma non troppo lento  Op.
TTITLE20=31
TTITLE21=Yellowed Leaves, piano   Vivo  Op. 31
TTITLE22=Quartet, strings, no. 05, e minor   Molto vivo sussurando  Op
TTITLE22=47
EXTD=
EXTT0=
EXTT1=
EXTT2=
EXTT3=
EXTT4=
EXTT5=
EXTT6=
EXTT7=
EXTT8=
EXTT9=
EXTT10=
EXTT11=
EXTT12=
EXTT13=
EXTT14=
EXTT15=
EXTT16=
EXTT17=
EXTT18=
EXTT19=
EXTT20=
EXTT21=
EXTT22=
PLAYORDER=
